<?xml version="1.0" encoding="UTF-8" standalone="no"?>
<svg
   version="1.0"
   width="557.000000pt"
   height="600.000000pt"
   viewBox="0 0 557.000000 600.000000"
   preserveAspectRatio="xMidYMid meet"
   id="svg22"
   sodipodi:docname="bee_stencil.svg"
   inkscape:version="1.4.3 (fcd0343856, 2026-01-01)"
   xmlns:inkscape="http://www.inkscape.org/namespaces/inkscape"
   xmlns:sodipodi="http://sodipodi.sourceforge.net/DTD/sodipodi-0.dtd"
   xmlns="http://www.w3.org/2000/svg"
   xmlns:svg="http://www.w3.org/2000/svg">
  <defs
     id="defs22" />
  <sodipodi:namedview
     id="namedview22"
     pagecolor="#ffffff"
     bordercolor="#000000"
     borderopacity="0.25"
     inkscape:showpageshadow="2"
     inkscape:pageopacity="0.0"
     inkscape:pagecheckerboard="0"
     inkscape:deskcolor="#d1d1d1"
     inkscape:document-units="pt"
     inkscape:zoom="0.96375"
     inkscape:cx="370.94682"
     inkscape:cy="400"
     inkscape:window-width="1920"
     inkscape:window-height="1003"
     inkscape:window-x="0"
     inkscape:window-y="0"
     inkscape:window-maximized="1"
     inkscape:current-layer="svg22" />
  <g
     transform="translate(0.000000,600.000000) scale(0.100000,-0.100000)"
     fill="#000000"
     stroke="none"
     id="g22">
    <path
       d="M3660 5767 c-204 -61 -422 -245 -581 -492 -41 -64 -156 -240 -256 -393 -101 -152 -183 -285 -183 -294 0 -28 17 -30 66 -9 69 31 75 29 67 -25 -5 -38 -3 -45 9 -43 20 5 258 234 258 249 0 12 -35 13 -76 1 -49 -14 -60 -1 -45 51 49 163 172 297 274 298 42 0 77 -40 77 -89 0 -49 -25 -81 -120 -151 -39 -29 -70 -59 -70 -67 0 -8 6 -13 13 -10 56 21 118 30 129 19 9 -9 -7 -31 -74 -95 -47 -45 -121 -111 -164 -147 -79 -66 -98 -90 -70 -90 33 0 483 329 510 372 14 23 4 30 -28 19 -14 -6 -33 -8 -42 -4 -24 9 -13 85 20 127 29 39 133 103 146 90 4 -5 33 -43 64 -84 43 -58 53 -77 43 -86 -56 -52 -249 -205 -432 -342 -293 -219 -375 -283 -375 -293 0 -20 40 -5 174 65 151 80 307 146 396 166 58 14 439 200 460 225 10 13 9 15 -8 15 -20 0 -53 -14 -212 -87 -136 -63 -199 -86 -216 -79 -15 6 -15 8 1 26 22 25 327 212 425 262 131 66 230 80 230 31 0 -9 -21 -36 -47 -60 l-48 -43 33 0 c17 0 73 -7 123 -16 121 -21 147 4 43 39 -51 18 -70 54 -54 102 14 42 34 57 178 129 67 34 112 62 112 71 0 19 8 20 -80 -14 -170 -64 -231 -44 -186 62 19 46 68 86 172 139 139 72 255 109 357 115 76 5 90 3 108 -13 44 -39 -5 -105 -138 -185 -101 -61 -108 -89 -24 -89 27 0 61 -26 61 -46 0 -5 -25 -22 -55 -38 -30 -16 -55 -32 -55 -37 0 -5 -18 -18 -41 -29 -53 -27 -44 -35 23 -20 29 6 71 10 93 8 39 -3 40 -4 43 -43 4 -59 -23 -95 -106 -138 -78 -41 -108 -44 -189 -21 -30 9 -57 13 -61 10 -3 -4 9 -22 27 -40 19 -20 31 -42 29 -52 -4 -24 -170 -108 -258 -130 -53 -13 -93 -15 -210 -10 l-145 6 -65 -35 c-157 -86 -213 -108 -275 -110 -65 -2 -110 -19 -164 -59 -72 -54 -378 -161 -506 -178 -61 -8 -114 -22 -162 -44 -75 -34 -88 -48 -53 -59 37 -12 70 -63 70 -110 0 -37 -5 -47 -35 -74 -27 -23 -32 -33 -21 -37 8 -3 23 -1 35 5 31 17 38 12 12 -9 -72 -61 -241 32 -241 133 0 55 46 107 94 107 7 0 29 15 49 34 21 19 68 46 109 61 88 34 131 73 126 117 -3 26 -12 36 -63 64 -70 39 -186 76 -305 99 -126 24 -140 31 -140 71 0 45 -14 43 -45 -6 -29 -46 -45 -44 -45 5 0 49 -16 51 -46 5 -30 -45 -44 -40 -44 18 0 47 -16 39 -35 -18 -9 -27 -20 -50 -25 -50 -4 0 -11 19 -14 43 -6 34 -9 39 -17 24 -6 -9 -14 -36 -18 -60 l-8 -42 -19 32 c-25 43 -34 41 -34 -5 0 -21 -5 -43 -11 -49 -8 -8 2 -28 39 -73 65 -81 87 -152 86 -280 -1 -100 -19 -185 -72 -342 -58 -170 -158 -334 -225 -370 -21 -11 -21 -10 -6 13 121 184 179 297 218 421 25 83 44 262 36 337 -13 117 -45 164 -45 69 l-1 -53 -13 38 c-14 39 -42 77 -57 77 -5 0 -10 -38 -11 -85 -2 -47 -7 -86 -13 -88 -5 -1 -13 28 -17 65 -7 76 -44 155 -91 194 -16 13 -27 30 -24 37 8 21 74 37 110 26 42 -12 47 -12 47 5 0 14 -39 51 -63 59 -6 2 4 18 23 36 37 34 38 34 -30 14 -16 -5 22 32 49 47 25 13 7 22 -23 11 -31 -12 -35 -1 -6 17 11 7 20 17 20 23 0 11 -16 9 -55 -7 -17 -7 -16 -2 8 39 35 59 20 60 -31 2 -43 -49 -62 -60 -36 -20 24 36 10 42 -28 13 -53 -40 -62 -43 -50 -22 6 11 20 28 31 38 22 20 27 36 12 36 -5 0 -32 -21 -60 -46 -52 -46 -82 -54 -45 -11 11 12 26 31 34 41 16 21 16 21 -37 -1 -7 -3 -13 7 -15 23 -3 28 -3 27 -32 -16 -42 -64 -43 -34 -2 56 20 42 36 89 36 104 0 61 -162 234 -345 367 -132 97 -251 163 -292 163 -32 0 -63 -34 -63 -68 0 -40 31 -65 132 -107 159 -67 315 -172 422 -284 67 -71 68 -83 22 -181 l-26 -55 4 40 c3 22 8 50 12 63 4 13 2 22 -4 22 -9 0 -35 -48 -57 -105 l-8 -20 -5 20 c-2 11 -9 31 -14 45 -13 34 -28 9 -28 -47 0 -56 -15 -55 -29 2 -6 25 -15 45 -20 45 -11 0 -21 -36 -21 -79 0 -25 -4 -32 -15 -27 -9 3 -15 0 -15 -9 0 -18 -5 -18 -32 -4 -17 9 -19 8 -16 -8 3 -14 22 -21 105 -35 148 -26 206 -50 274 -117 41 -40 62 -72 78 -113 30 -83 43 -182 35 -263 -11 -119 -21 -117 -26 5 -11 234 -89 367 -255 430 -60 23 -183 37 -227 26 -15 -4 -34 -22 -47 -46 -21 -37 -49 -50 -40 -19 2 8 6 22 8 32 7 24 -33 23 -75 -3 -42 -26 -67 -68 -87 -149 -20 -84 -52 -140 -92 -166 -18 -11 -32 -24 -33 -29 0 -15 51 4 114 44 35 22 66 40 70 40 4 0 -12 -24 -37 -52 -24 -29 -64 -86 -87 -127 l-44 -74 -11 49 c-15 63 -41 114 -60 114 -18 0 -18 3 0 -67 8 -31 15 -90 15 -130 l0 -73 39 0 c37 0 39 2 46 38 18 103 101 215 196 267 77 41 233 87 317 92 82 5 92 14 72 63 -25 59 -91 100 -209 130 -92 24 17 41 119 19 67 -14 157 -77 197 -136 55 -82 83 -244 48 -273 -13 -11 -24 -7 -66 19 -28 17 -55 31 -60 31 -5 0 8 -21 28 -47 43 -57 68 -112 78 -170 l7 -43 63 0 c73 0 70 -4 80 108 4 44 12 72 19 72 29 -1 143 -33 165 -46 30 -20 14 -42 -18 -24 -28 15 -98 17 -111 4 -11 -11 -50 -182 -50 -222 0 -39 83 -58 113 -24 18 20 40 132 31 156 -7 19 -50 22 -57 4 -3 -7 -6 1 -6 19 -1 41 9 47 59 32 60 -18 61 -20 14 -219 -34 -141 -116 -293 -199 -370 -22 -20 -18 -11 18 45 57 89 113 201 122 243 6 29 5 32 -18 32 -14 0 -32 3 -40 6 -11 4 -19 -9 -32 -53 -23 -81 -98 -230 -140 -278 l-36 -40 34 70 c61 124 100 258 102 352 l2 83 -57 0 -58 0 -12 -47 c-36 -145 -158 -258 -302 -278 l-48 -7 0 -67 c0 -37 3 -70 6 -73 3 -3 27 0 55 7 32 9 49 10 49 3 0 -6 -30 -40 -66 -75 -59 -58 -65 -67 -49 -76 33 -18 95 -79 95 -93 0 -8 -2 -14 -4 -14 -1 0 -33 20 -70 44 -151 99 -433 146 -599 100 -27 -8 -50 -63 -51 -122 0 -51 2 -56 42 -94 l42 -39 27 20 c21 18 40 21 114 21 l89 0 0 50 c0 60 2 59 -155 63 -121 2 -135 11 -82 51 25 19 41 21 135 19 234 -3 502 -112 502 -204 0 -32 -14 -37 -39 -15 -27 24 -117 66 -209 97 -47 16 -87 29 -89 29 -2 0 -3 -22 -3 -49 0 -48 0 -49 36 -56 74 -13 180 -73 162 -90 -3 -3 -26 4 -52 15 -25 12 -51 18 -56 15 -16 -10 -12 -65 4 -65 8 0 39 -13 70 -30 l57 -29 66 47 c37 26 73 61 82 79 9 18 22 33 28 33 7 0 19 15 27 33 28 66 82 96 115 65 11 -11 12 -6 7 30 -8 57 10 56 47 -3 16 -25 32 -45 37 -45 4 0 6 18 3 40 -7 52 9 52 39 0 30 -52 41 -51 32 5 -3 25 -3 45 0 45 3 0 20 -22 36 -49 34 -54 67 -78 56 -39 -4 13 -9 39 -12 58 l-6 35 24 -26 c13 -14 33 -39 44 -55 12 -16 25 -26 29 -22 7 7 0 32 -30 102 l-17 40 37 -28 37 -29 -7 44 -7 44 26 -24 c14 -13 30 -39 36 -57 13 -38 21 -41 54 -19 17 11 35 14 65 9 36 -6 51 -17 104 -76 58 -65 62 -67 71 -46 5 13 10 120 11 238 1 273 15 333 83 369 30 16 85 -14 76 -41 -3 -12 6 -33 26 -57 27 -35 29 -41 14 -49 -14 -8 -12 -13 15 -44 38 -43 39 -50 6 -42 -30 8 -31 5 -4 -41 l22 -36 -27 7 -27 6 6 -78 c6 -75 5 -78 -11 -56 -24 32 -32 27 -36 -20 l-3 -43 -17 32 c-10 18 -18 51 -18 75 0 24 -7 75 -15 113 -19 91 -19 134 1 156 22 24 11 69 -16 69 -13 0 -22 -9 -27 -27 -7 -25 -7 -263 0 -553 l2 -105 -29 -3 c-57 -7 -74 6 -133 93 -37 56 -62 85 -75 85 -21 0 -22 -4 -6 -33 6 -12 16 -62 22 -111 14 -111 32 -129 123 -129 92 0 143 35 143 100 0 15 7 37 15 47 8 11 15 27 15 35 0 29 21 91 30 91 6 0 10 -20 10 -44 0 -58 10 -107 21 -100 5 3 9 14 9 25 0 11 5 30 12 42 11 21 11 21 19 2 4 -11 8 -31 8 -45 2 -69 41 -137 41 -71 0 42 11 91 21 91 4 0 14 -18 20 -40 16 -53 29 -51 29 5 0 27 5 45 11 45 19 0 3 -125 -25 -209 -14 -41 -24 -76 -22 -78 2 -2 21 16 42 41 21 25 39 44 41 42 2 -2 -4 -20 -13 -40 -10 -19 -15 -38 -12 -41 3 -3 21 1 40 10 49 20 53 5 21 -71 -13 -32 -30 -71 -36 -86 -15 -37 -30 -35 -64 7 -33 42 -56 44 -80 9 -16 -25 -16 -27 0 -39 25 -18 22 -26 -29 -75 -90 -89 -255 -333 -289 -430 -22 -64 -20 -151 6 -184 26 -33 49 -33 89 0 30 25 32 26 44 8 13 -17 16 -15 42 27 16 25 40 69 53 97 21 44 27 51 47 46 24 -6 28 0 40 71 9 56 15 62 29 29 l12 -29 7 25 c3 14 17 96 30 183 24 154 35 187 61 187 25 0 95 61 116 102 17 33 23 67 27 148 l5 105 -51 67 c-27 37 -53 81 -57 98 -16 71 29 340 70 420 34 67 78 102 124 98 30 -2 39 -9 53 -38 46 -95 66 -317 32 -368 l-18 -27 -8 43 c-9 54 -18 69 -29 51 -5 -8 -9 -24 -9 -36 0 -53 -31 -9 -45 65 -4 18 -1 72 6 120 21 151 -6 184 -64 79 -35 -62 -69 -176 -82 -274 -8 -63 13 -116 79 -201 25 -32 52 -78 59 -102 16 -53 57 -122 99 -167 38 -39 37 -43 -43 -213 -32 -69 -59 -138 -59 -151 0 -68 124 -184 170 -159 44 24 100 215 100 341 0 43 3 80 8 82 15 9 124 -12 141 -27 10 -9 38 -56 64 -105 26 -49 54 -92 62 -95 25 -9 36 39 34 139 -2 92 7 116 28 74 20 -42 -17 -375 -52 -461 -5 -13 -2 -18 9 -18 13 0 16 -14 16 -90 0 -121 15 -157 88 -208 89 -61 99 -65 132 -52 35 14 39 29 47 160 4 84 1 125 -15 205 -19 94 -96 345 -142 467 -11 29 -20 65 -20 80 0 15 -5 30 -12 34 -7 5 -51 7 -98 6 -126 -4 -372 60 -415 108 -18 20 -17 20 31 20 77 0 243 -38 290 -65 24 -14 58 -25 79 -25 35 0 35 0 20 24 -24 37 -85 61 -245 95 -163 36 -203 54 -208 94 -5 37 29 36 60 -1 25 -31 57 -40 213 -63 218 -31 281 -79 346 -261 27 -77 64 -140 126 -217 l28 -34 -33 7 c-17 4 -32 4 -32 0 0 -10 39 -74 72 -115 34 -45 35 -51 3 -43 -21 5 -24 3 -19 -12 4 -11 29 -48 56 -84 48 -63 51 -83 9 -60 -28 14 -28 -6 0 -67 22 -49 18 -70 -7 -35 -32 46 -58 20 -44 -43 10 -43 39 -70 117 -112 29 -15 53 -34 53 -41 0 -9 7 -11 20 -7 13 4 20 2 20 -7 0 -7 4 -19 9 -27 8 -12 12 -12 24 -2 17 13 21 9 31 -32 9 -36 28 -30 39 13 11 44 27 22 27 -40 1 -40 2 -43 14 -27 13 16 15 16 30 -8 21 -32 36 -32 36 0 0 33 11 32 39 -6 16 -21 26 -27 31 -20 5 8 13 3 25 -15 12 -19 19 -23 25 -14 6 9 10 8 18 -5 9 -18 37 -24 117 -28 22 0 45 -8 52 -17 11 -13 12 -12 13 8 0 30 8 28 42 -11 l29 -32 -6 32 c-7 37 8 45 25 13 14 -26 30 -25 30 2 0 21 1 20 31 -8 35 -33 59 -76 83 -151 9 -28 23 -57 31 -63 23 -19 53 5 66 52 9 37 8 54 -14 128 -32 107 -38 142 -27 159 6 10 9 8 15 -8 11 -34 25 -24 25 19 0 24 12 62 29 97 38 74 50 128 57 256 6 99 -3 157 -25 157 -5 0 -36 -22 -68 -50 -60 -51 -212 -135 -232 -129 -6 2 15 23 46 46 132 96 233 230 233 309 0 48 -32 190 -50 223 -21 40 -42 20 -86 -87 -61 -149 -99 -198 -214 -278 -30 -21 -63 -47 -72 -59 -31 -39 -328 -149 -457 -169 -39 -6 -43 -5 -35 11 17 37 9 97 -19 138 -42 61 -38 67 61 105 126 47 244 109 363 188 164 110 227 174 314 317 31 51 35 66 30 100 -9 56 -201 374 -232 383 -7 2 -15 -9 -19 -25 -17 -66 -80 -205 -137 -302 -62 -104 -190 -251 -218 -251 -8 0 -41 -20 -73 -44 -32 -24 -93 -62 -136 -85 l-78 -41 -32 37 c-17 21 -47 72 -66 113 -19 41 -45 96 -58 122 l-24 48 77 54 c103 73 205 163 266 235 98 116 174 281 189 412 l7 56 -50 45 c-46 41 -121 84 -179 102 -22 7 -23 6 -15 -31 4 -21 7 -68 7 -105 -2 -59 -7 -77 -51 -161 -87 -165 -231 -340 -356 -433 -44 -33 -63 -41 -76 -35 -15 8 -81 26 -164 45 -27 6 -25 10 101 134 209 206 282 344 282 533 0 97 -3 92 65 114 38 13 -33 38 -102 37 -35 0 -63 4 -63 9 0 17 -19 9 -54 -21 l-35 -31 -3 38 -3 38 -30 -41 c-16 -23 -39 -57 -49 -75 l-20 -34 -6 35 -5 35 -17 -25 c-9 -14 -19 -36 -23 -49 l-7 -24 -12 22 c-16 28 -26 17 -26 -29 0 -25 -7 -43 -23 -58 -47 -44 -87 -20 -87 52 0 28 4 36 18 36 10 0 27 6 37 14 18 13 18 15 -8 49 -15 20 -27 38 -27 41 0 3 13 6 29 6 46 0 46 17 1 40 -47 24 -44 37 11 46 72 12 45 32 -74 54 -71 13 -93 26 -55 34 116 24 143 32 143 46 0 31 -55 44 -193 44 -85 1 -131 4 -129 11 9 28 475 243 547 252 75 10 160 -36 160 -87 0 -37 -35 -65 -100 -80 -79 -18 -156 -48 -172 -67 -12 -15 -6 -16 72 -10 61 5 344 32 377 37 1 0 12 10 23 22 16 18 34 23 90 26 39 2 70 8 70 13 0 5 -5 9 -12 9 -6 0 -19 7 -29 16 -12 11 -44 17 -113 19 -101 4 -143 18 -170 57 -20 29 -20 34 4 58 18 18 33 20 129 20 108 0 161 10 161 30 0 6 -33 10 -82 10 -107 0 -124 10 -82 49 52 47 131 71 232 71 122 -1 171 -12 200 -46 20 -22 23 -35 18 -65 -7 -44 5 -50 69 -36 53 11 66 24 40 42 -39 28 -45 36 -45 65 0 24 8 35 42 57 39 26 50 28 187 34 80 4 148 7 150 8 2 0 -8 12 -23 26 -40 37 -35 74 15 120 23 20 56 43 75 51 37 16 56 40 74 96 20 63 88 104 239 144 30 8 73 26 94 41 81 57 96 65 117 58 54 -17 45 -97 -19 -159 -35 -34 -46 -39 -108 -46 -52 -5 -89 -17 -143 -46 -40 -22 -73 -43 -73 -49 0 -5 22 -21 49 -33 65 -32 82 -48 90 -88 7 -40 19 -51 58 -56 l29 -3 -29 -34 c-54 -64 -133 -84 -244 -60 -36 8 -55 8 -64 0 -7 -6 -42 -17 -79 -26 -37 -8 -77 -20 -90 -25 -12 -5 -48 -16 -79 -25 -39 -10 -58 -21 -58 -31 0 -12 7 -14 28 -10 138 27 308 34 328 13 11 -11 -27 -48 -71 -68 -22 -9 -79 -24 -127 -33 -48 -9 -117 -28 -153 -42 l-67 -25 -107 22 c-58 12 -121 28 -140 35 -32 13 -38 12 -112 -24 -43 -20 -78 -40 -78 -44 -1 -5 54 -8 122 -8 118 0 197 -12 197 -29 0 -16 -31 -21 -130 -21 -70 0 -101 -4 -109 -14 -9 -10 2 -16 54 -31 36 -9 76 -26 88 -36 l22 -19 -23 -19 c-30 -26 -112 -56 -205 -75 -55 -12 -134 -16 -290 -16 -209 0 -282 -9 -274 -33 5 -15 41 -24 186 -43 185 -24 364 -22 475 5 122 29 194 71 303 173 52 48 107 95 124 104 17 8 79 29 137 45 172 48 413 187 508 292 26 28 67 84 92 122 53 83 123 188 204 306 70 103 107 204 115 314 8 112 -5 151 -70 212 -90 85 -220 120 -417 110 -374 -18 -771 -191 -1223 -535 -59 -45 -111 -82 -115 -82 -8 1 -100 123 -108 144 -3 8 3 17 14 20 35 12 39 56 6 56 -9 0 -57 -24 -107 -54 -110 -65 -127 -71 -153 -52 -26 20 -11 43 48 76 81 45 88 55 114 160 17 68 18 110 3 110 -28 0 -140 -100 -183 -163 -48 -69 -91 -101 -129 -95 -35 5 -24 53 30 133 97 142 248 268 302 250 10 -3 25 -19 31 -36 13 -30 14 -31 70 -24 81 9 93 -4 88 -104 l-3 -76 45 3 c25 1 60 0 79 -4 l34 -5 -6 -51 -6 -50 37 7 c53 9 76 28 100 77 42 91 56 285 27 369 -20 55 -69 106 -115 119 -58 16 -160 11 -240 -13z"
       id="path1" />
    <path
       d="M121 5094 c-23 -30 -21 -57 9 -88 13 -13 57 -24 170 -42 189 -29 275 -52 458 -120 217 -82 203 -69 238 -216 9 -39 26 -50 58 -38 31 11 31 11 10 103 -24 104 -36 123 -103 157 -155 78 -657 253 -762 265 -53 7 -57 5 -78 -21z"
       id="path2" />
    <path
       d="M571 4136 c-17 -20 -50 -122 -57 -177 l-7 -49 55 0 55 0 6 48 c3 26 2 74 -2 107 -9 82 -24 103 -50 71z"
       id="path3" />
    <path
       d="M1036 4130 c-63 -25 -121 -81 -143 -139 -21 -55 -23 -153 -4 -198 20 -49 34 -41 27 15 l-6 47 23 -50 c34 -71 73 -114 132 -142 l50 -25 -49 6 c-42 5 -47 4 -36 -9 21 -25 117 -48 176 -42 140 14 232 115 242 264 4 64 1 79 -22 127 -67 137 -244 203 -390 146z"
       id="path4" />
    <path
       d="M2520 4043 c0 -9 7 -24 16 -34 18 -20 12 -54 -12 -63 -35 -13 -80 42 -55 67 16 16 14 37 -4 37 -25 0 -55 -38 -55 -70 0 -44 48 -93 90 -93 25 0 40 8 62 31 36 41 37 81 2 116 -31 30 -44 33 -44 9z"
       id="path5" />
    <path
       d="M655 3938 c-2 -7 -6 -40 -9 -73 -12 -111 -58 -258 -90 -285 -24 -19 -20 -25 24 -43 31 -12 44 -25 56 -53 15 -35 14 -41 -7 -106 -12 -38 -19 -71 -16 -74 3 -3 14 -1 25 5 12 6 34 11 51 11 39 0 51 23 51 95 0 57 23 167 42 195 9 15 5 -115 -8 -226 -8 -62 -12 -59 130 -69 113 -8 119 1 29 41 -31 13 -54 27 -51 30 3 2 34 0 69 -6 35 -5 88 -10 117 -10 l52 0 0 75 0 74 -42 12 c-135 36 -241 141 -269 264 -11 50 -14 53 -47 59 -19 3 -39 3 -43 1 -4 -3 -12 -29 -18 -58 -15 -67 -42 -150 -48 -144 -2 3 0 22 6 44 18 66 33 193 26 224 -7 30 -23 39 -30 17z"
       id="path6" />
    <path
       d="M494 3824 c-12 -46 1 -193 18 -211 15 -14 17 -13 31 8 16 24 67 189 67 215 0 10 -15 14 -55 14 -50 0 -55 -2 -61 -26z"
       id="path7" />
    <path
       d="M1910 3071 c-65 -20 -81 -46 -115 -179 -25 -98 -3 -203 48 -237 20 -13 30 -14 46 -6 11 6 34 11 51 11 l32 0 -6 53 c-3 28 -8 123 -12 210 -4 86 -9 157 -13 156 -3 0 -17 -4 -31 -8z"
       id="path8" />
    <path
       d="M703 3031 c-46 -12 -65 -30 -61 -60 l3 -26 145 1 145 1 6 31 c6 30 5 31 -40 41 -73 15 -163 21 -198 12z"
       id="path9" />
    <path
       d="M1248 2904 c-56 -44 -76 -83 -66 -127 5 -24 124 27 132 56 8 32 7 117 -1 117 -5 0 -34 -21 -65 -46z"
       id="path10" />
    <path
       d="M700 2910 c-35 -9 -70 -41 -70 -66 0 -18 6 -18 96 7 58 16 98 20 165 17 84 -3 90 -4 147 -45 62 -44 72 -45 72 -8 0 32 -30 54 -101 76 -71 22 -253 34 -309 19z"
       id="path11" />
    <path
       d="M792 2830 c-19 -4 -39 -13 -44 -18 -15 -15 14 -20 142 -25 58 -3 110 -7 115 -8 6 -2 12 1 14 6 13 30 -155 64 -227 45z"
       id="path12" />
    <path
       d="M1422 2799 c-151 -25 -451 -177 -659 -333 -191 -143 -236 -217 -183 -304 l20 -32 67 68 c94 95 240 196 488 338 42 24 47 29 27 32 -12 2 -48 -9 -80 -23 -134 -63 -162 -74 -162 -64 0 22 101 106 181 151 100 56 223 99 261 91 15 -3 33 -12 40 -20 10 -13 8 -19 -11 -34 -30 -25 -25 -30 21 -20 42 10 48 7 48 -23 0 -12 11 -41 25 -65 14 -23 25 -47 25 -52 0 -5 -29 -24 -65 -41 -36 -18 -65 -38 -65 -45 0 -17 3 -16 48 3 66 29 142 53 142 46 -1 -4 -24 -20 -52 -37 -70 -40 -75 -60 -11 -39 60 20 153 30 153 17 0 -5 -18 -15 -40 -22 -65 -19 -274 -116 -382 -176 -55 -31 -102 -54 -105 -52 -2 3 10 21 28 41 17 20 29 39 26 43 -17 16 -107 -33 -269 -147 -229 -161 -284 -272 -127 -256 138 14 382 133 699 341 179 118 250 186 250 238 0 19 -7 40 -15 47 -14 11 -59 87 -149 252 -50 92 -60 96 -174 77z"
       id="path13" />
    <path
       d="M685 2744 c-106 -27 -161 -62 -137 -86 8 -8 8 -15 1 -24 -25 -30 -5 -58 63 -94 37 -20 74 -44 81 -54 13 -17 21 -13 123 56 60 41 153 100 207 132 122 72 131 97 23 60 -40 -14 -55 -15 -85 -5 -38 13 -242 24 -276 15z"
       id="path14" />
    <path
       d="M1864 2584 c-24 -58 -28 -93 -12 -99 11 -5 15 -20 13 -58 -2 -29 -6 -60 -10 -69 -4 -11 -3 -18 5 -18 9 0 10 -11 5 -36 -4 -26 -2 -39 7 -45 10 -7 10 -14 -4 -40 -24 -42 -23 -62 2 -54 18 6 20 2 20 -54 0 -57 -2 -61 -37 -90 -21 -17 -46 -31 -56 -31 -36 0 -10 -25 29 -28 55 -4 100 27 126 85 18 41 19 52 9 97 -8 35 -8 52 -1 54 14 5 13 35 -1 49 -7 7 -13 44 -15 82 -2 64 0 71 17 71 26 0 24 26 -6 74 -18 29 -21 44 -14 58 6 12 5 28 -5 53 -20 48 -52 48 -72 -1z"
       id="path15" />
    <path
       d="M1008 2416 c-146 -83 -314 -215 -362 -285 l-27 -39 41 -82 41 -82 83 80 c86 82 277 214 428 296 48 26 98 56 110 66 l23 19 -23 1 c-12 0 -45 -11 -72 -25 -27 -14 -57 -25 -65 -25 -29 0 -75 55 -75 89 0 18 -5 31 -13 31 -7 0 -47 -20 -89 -44z"
       id="path16" />
    <path
       d="M2801 2123 c-35 -155 -41 -290 -17 -348 12 -28 13 -47 4 -96 -9 -54 -9 -63 6 -71 20 -11 20 -35 2 -80 -18 -42 -8 -63 29 -56 28 6 29 1 10 -44 -5 -13 -1 -20 18 -27 30 -12 41 -40 32 -81 -9 -39 -29 -54 -75 -52 -44 2 -55 -19 -21 -38 48 -25 95 -8 179 67 34 29 44 46 45 72 2 38 -18 53 -28 22 -3 -12 -13 -21 -21 -21 -17 0 -72 83 -80 120 -3 14 -11 50 -19 80 -8 30 -16 81 -18 112 -3 52 -1 60 24 84 16 15 32 45 38 73 16 67 41 272 35 282 -3 5 -23 12 -44 15 -22 4 -45 13 -51 20 -21 26 -37 14 -48 -33z"
       id="path17" />
    <path
       d="M2053 1798 c-55 -61 -95 -192 -97 -319 -1 -103 10 -124 61 -114 25 4 35 2 39 -10 3 -8 12 -15 19 -15 18 0 25 35 14 72 -10 38 -7 43 20 29 16 -9 22 -8 30 8 10 17 5 46 -14 95 -7 15 -5 17 13 11 21 -6 22 -3 22 44 0 48 10 65 25 41 12 -19 25 1 24 38 0 20 -6 55 -13 77 -11 35 -15 40 -40 37 -15 -2 -39 4 -52 12 -29 20 -27 20 -51 -6z"
       id="path19" />
    <path
       d="M3422 1751 c-18 -11 -24 -74 -13 -157 16 -130 40 -180 139 -290 48 -54 109 -124 136 -156 32 -40 52 -56 58 -50 7 7 7 21 0 42 -18 51 17 34 45 -22 13 -27 28 -48 33 -48 5 0 15 18 21 41 9 27 21 44 36 50 34 13 29 30 -29 105 -32 43 -44 64 -32 59 36 -15 64 -17 64 -6 0 6 -26 39 -57 73 l-57 62 32 8 c46 12 41 35 -20 90 l-53 48 34 -7 c44 -8 36 5 -45 81 -75 69 -94 72 -87 16 7 -48 -11 -54 -48 -14 -45 48 -133 90 -157 75z"
       id="path20" />
    <path
       d="M1975 1299 c-9 -17 -23 -74 -31 -126 -8 -52 -19 -103 -24 -113 -13 -25 -13 -116 1 -143 15 -29 50 -56 72 -57 19 0 23 15 7 25 -16 10 -41 65 -35 76 4 5 21 -3 40 -20 19 -16 43 -32 54 -36 27 -8 69 13 94 47 27 37 14 53 -22 27 -38 -28 -65 -18 -96 35 -29 49 -32 78 -10 96 29 24 10 207 -22 217 -7 3 -19 -10 -28 -28z"
       id="path21" />
    <path
       d="M3866 1093 c-4 -10 1 -28 12 -43 11 -14 31 -49 46 -78 26 -52 42 -62 64 -40 15 15 47 -13 73 -64 22 -43 25 -44 50 -22 24 21 49 7 88 -52 36 -55 37 -65 13 -87 -23 -21 -41 -21 -70 -1 -20 14 -22 14 -22 -1 0 -28 18 -52 49 -65 72 -30 151 24 151 102 0 32 3 39 15 34 8 -3 22 -9 30 -12 27 -11 16 27 -17 60 -21 21 -58 41 -103 56 -38 12 -79 31 -90 41 -11 10 -34 24 -51 31 -16 7 -45 28 -64 46 -62 58 -134 112 -151 112 -9 0 -20 -8 -23 -17z"
       id="path22" />
  </g>
</svg>
